:FULLY-SPECIFIED
:FORCE-ALL-JOINTS-BE-3DOF
:DEGREES
372
root 9.32837 17.0694 16.09 6.23606 4.03139 -3.03229
lfemur -34.8668 5.64149 -17.8138
ltibia 56.3337 0 0
lfoot -14.6869 11.7715 0
ltoes -3.6349 0 0
rfemur -13.2369 6.16428 29.0362
rtibia 29.1154 0 0
rfoot -19.0699 2.95099 0
rtoes -14.1231 0 0
lowerback -5.77822 0.252304 0.0884858
upperback -0.716484 0.257827 2.77609
thorax 2.49122 0.118987 2.83323
lowerneck -19.9 -6.21074 -12.6475
upperneck 21.341 -8.06055 12.8077
head 11.2967 -3.20985 5.55443
lclavicle 1.14715e-15 5.63225e-15 0
lhumerus -46.5118 -18.1369 97.739
lradius 28.3426 0 0
lwrist 12.1868 0 0
lhand -14.5545 -22.3531 0
lfingers 7.12502 0 0
lthumb 11.5943 7.30606 0
rclavicle 1.14715e-15 5.63225e-15 0
rhumerus -33.4228 18.2251 -84.1099
rradius 44.1402 0 0
rwrist -23.188 0 0
rhand -31.0739 -24.2379 0
rfingers 7.12502 0 0
rthumb -4.35441 -54.1727 0
373
root 9.33553 17.0711 16.2112 6.20458 3.72204 -3.12444
lfemur -35.7151 5.4973 -17.8881
ltibia 55.1608 0 0
lfoot -14.928 11.8154 0
ltoes -3.24045 0 0
rfemur -12.5453 6.16655 29.1828
rtibia 28.751 0 0
rfoot -19.2392 3.15822 0
rtoes -14.1518 0 0
lowerback -5.76685 0.424179 0.180414
upperback -0.679561 0.480195 2.78835
thorax 2.51135 0.230361 2.81161
lowerneck -19.9861 -6.24637 -12.4559
upperneck 21.49 -8.1014 12.524
head 11.3516 -3.24089 5.4093
lclavicle -9.19379e-16 1.07344e-14 0
lhumerus -46.8679 -17.7878 97.599
lradius 28.256 0 0
lwrist 12.1942 0 0
lhand -14.627 -22.3701 0
lfingers 7.12502 0 0
lthumb 11.5245 7.29306 0
rclavicle -9.19379e-16 1.07344e-14 0
rhumerus -32.9454 18.3189 -83.9713
rradius 44.3713 0 0
rwrist -23.2521 0 0
rhand -31.2908 -23.7895 0
rfingers 7.12502 0 0
rthumb -4.56391 -53.7204 0
374
root 9.34151 17.0773 16.3375 6.11511 3.42139 -3.3096
lfemur -36.2148 5.38114 -17.7424
ltibia 53.599 0 0
lfoot -14.9191 11.5573 0
ltoes -4.71917 0 0
rfemur -11.5055 6.14543 29.4498
rtibia 27.8905 0 0
rfoot -19.2018 3.19592 0
rtoes -14.9336 0 0
lowerback -5.75099 0.567196 0.32282
upperback -0.611927 0.658559 2.84834
thorax 2.56589 0.320006 2.80831
lowerneck -19.9831 -6.2413 -12.4823
upperneck 21.5435 -8.09215 12.5283
head 11.3711 -3.23828 5.41918
lclavicle -4.70043e-15 6.62618e-15 0
lhumerus -46.9974 -17.1115 97.2047
lradius 28.0199 0 0
lwrist 11.6996 0 0
lhand -14.3091 -22.3921 0
lfingers 7.12502 0 0
lthumb 11.831 7.2525 0
rclavicle -4.70043e-15 6.62618e-15 0
rhumerus -32.513 18.3509 -83.8871
rradius 44.4153 0 0
rwrist -23.2659 0 0
rhand -31.3973 -24.1907 0
rfingers 7.12502 0 0
rthumb -4.66672 -54.1192 0
375
root 9.34748 17.0835 16.4637 6.02564 3.12075 -3.49476
lfemur -36.7146 5.26497 -17.5966
ltibia 52.0372 0 0
lfoot -14.9101 11.2992 0
ltoes -6.1979 0 0
rfemur -10.4657 6.1243 29.7168
rtibia 27.03 0 0
rfoot -19.1645 3.23361 0
rtoes -15.7154 0 0
lowerback -5.73513 0.710213 0.465226
upperback -0.544293 0.836923 2.90833
thorax 2.62043 0.409652 2.805
lowerneck -19.9801 -6.23623 -12.5088
upperneck 21.597 -8.08291 12.5327
head 11.3907 -3.23568 5.42907
lclavicle -8.48149e-15 2.51797e-15 0
lhumerus -47.1269 -16.4352 96.8104
lradius 27.7838 0 0
lwrist 11.205 0 0
lhand -13.9913 -22.414 0
lfingers 7.12502 0 0
lthumb 12.1374 7.21194 0
rclavicle -8.48149e-15 2.51797e-15 0
rhumerus -32.0806 18.3829 -83.803
rradius 44.4593 0 0
rwrist -23.2797 0 0
rhand -31.5037 -24.5919 0
rfingers 7.12502 0 0
rthumb -4.76953 -54.5181 0
376
root 9.35346 17.0897 16.59 5.93617 2.8201 -3.67991
lfemur -37.2143 5.1488 -17.4509
ltibia 50.4755 0 0
lfoot -14.9012 11.0412 0
ltoes -7.67662 0 0
rfemur -9.42597 6.10318 29.9838
rtibia 26.1696 0 0
rfoot -19.1271 3.27131 0
rtoes -16.4973 0 0
lowerback -5.71927 0.85323 0.607632
upperback -0.476658 1.01529 2.96832
thorax 2.67497 0.499297 2.8017
lowerneck -19.9771 -6.23116 -12.5352
upperneck 21.6504 -8.07367 12.537
head 11.4102 -3.23307 5.43895
lclavicle -1.22625e-14 -1.59025e-15 0
lhumerus -47.2563 -15.759 96.4162
lradius 27.5478 0 0
lwrist 10.7105 0 0
lhand -13.6734 -22.4359 0
lfingers 7.12502 0 0
lthumb 12.4439 7.17138 0
rclavicle -1.22625e-14 -1.59025e-15 0
rhumerus -31.6482 18.4149 -83.7188
rradius 44.5033 0 0
rwrist -23.2935 0 0
rhand -31.6102 -24.9931 0
rfingers 7.12502 0 0
rthumb -4.87235 -54.9169 0
377
root 9.35944 17.0958 16.7163 5.8467 2.51946 -3.86507
lfemur -37.714 5.03264 -17.3051
ltibia 48.9137 0 0
lfoot -14.8923 10.7831 0
ltoes -9.15535 0 0
rfemur -8.38619 6.08205 30.2507
rtibia 25.3091 0 0
rfoot -19.0897 3.30901 0
rtoes -17.2791 0 0
lowerback -5.70341 0.996246 0.750038
upperback -0.409024 1.19365 3.02831
thorax 2.72951 0.588942 2.7984
lowerneck -19.9741 -6.22609 -12.5616
upperneck 21.7039 -8.06442 12.5413
head 11.4297 -3.23047 5.44883
lclavicle -1.60436e-14 -5.69847e-15 0
lhumerus -47.3858 -15.0827 96.0219
lradius 27.3117 0 0
lwrist 10.2159 0 0
lhand -13.3555 -22.4579 0
lfingers 7.12502 0 0
lthumb 12.7504 7.13082 0
rclavicle -1.60436e-14 -5.69847e-15 0
rhumerus -31.2157 18.4469 -83.6346
rradius 44.5474 0 0
rwrist -23.3074 0 0
rhand -31.7167 -25.3943 0
rfingers 7.12502 0 0
rthumb -4.97516 -55.3157 0
378
root 9.36541 17.102 16.8425 5.75723 2.21881 -4.05023
lfemur -38.2138 4.91647 -17.1593
ltibia 47.3519 0 0
lfoot -14.8833 10.525 0
ltoes -10.6341 0 0
rfemur -7.34642 6.06092 30.5177
rtibia 24.4486 0 0
rfoot -19.0524 3.3467 0
rtoes -18.0609 0 0
lowerback -5.68755 1.13926 0.892444
upperback -0.34139 1.37202 3.0883
thorax 2.78405 0.678588 2.79509
lowerneck -19.9711 -6.22102 -12.5881
upperneck 21.7574 -8.05518 12.5457
head 11.4493 -3.22786 5.45872
lclavicle -1.98246e-14 -9.80668e-15 0
lhumerus -47.5153 -14.4064 95.6276
lradius 27.0756 0 0
lwrist 9.7213 0 0
lhand -13.0377 -22.4798 0
lfingers 7.12502 0 0
lthumb 13.0568 7.09026 0
rclavicle -1.98246e-14 -9.80668e-15 0
rhumerus -30.7833 18.4789 -83.5505
rradius 44.5914 0 0
rwrist -23.3212 0 0
rhand -31.8231 -25.7955 0
rfingers 7.12502 0 0
rthumb -5.07797 -55.7146 0
